<?xml version="1.0" encoding="UTF-8"?>
<mxfile host="app.diagrams.net" modified="2023-12-21T08:35:33.950Z" agent="Mozilla/5.0 (Windows NT 10.0; Win64; x64) AppleWebKit/537.36 (KHTML, like Gecko) Chrome/120.0.0.0 Safari/537.36 Edg/120.0.0.0" etag="2J4K5CEsyn-_5AZEb9dU" version="22.1.11" type="google">
  <diagram name="第 1 页" id="4QLbV3jeEGOztwDBX3V3">
    <mxGraphModel dx="1042" dy="569" grid="1" gridSize="10" guides="1" tooltips="1" connect="1" arrows="1" fold="1" page="1" pageScale="1" pageWidth="827" pageHeight="1169" background="none" math="0" shadow="0">
      <root>
        <mxCell id="0" />
        <mxCell id="1" parent="0" />
        <mxCell id="8DHP59ZZchC0WPOyILgm-1" value="管理員" style="shape=umlActor;verticalLabelPosition=bottom;verticalAlign=top;html=1;outlineConnect=0;" parent="1" vertex="1">
          <mxGeometry x="670" y="250" width="30" height="60" as="geometry" />
        </mxCell>
        <mxCell id="8DHP59ZZchC0WPOyILgm-2" value="進入停車場" style="ellipse;whiteSpace=wrap;html=1;fontSize=15;labelBackgroundColor=none;fillColor=#d5e8d4;strokeColor=#82b366;" parent="1" vertex="1">
          <mxGeometry x="120" y="200" width="90" height="60" as="geometry" />
        </mxCell>
        <mxCell id="8DHP59ZZchC0WPOyILgm-3" value="離開停車場" style="ellipse;whiteSpace=wrap;html=1;fillColor=#d5e8d4;strokeColor=#82b366;fontSize=15;" parent="1" vertex="1">
          <mxGeometry x="120" y="350" width="90" height="60" as="geometry" />
        </mxCell>
        <mxCell id="8DHP59ZZchC0WPOyILgm-4" value="" style="endArrow=none;html=1;rounded=0;entryX=0.022;entryY=0.7;entryDx=0;entryDy=0;entryPerimeter=0;" parent="1" target="8DHP59ZZchC0WPOyILgm-2" edge="1">
          <mxGeometry width="50" height="50" relative="1" as="geometry">
            <mxPoint x="70" y="300" as="sourcePoint" />
            <mxPoint x="430" y="270" as="targetPoint" />
          </mxGeometry>
        </mxCell>
        <mxCell id="8DHP59ZZchC0WPOyILgm-5" value="" style="endArrow=none;html=1;rounded=0;entryX=-0.022;entryY=0.307;entryDx=0;entryDy=0;entryPerimeter=0;" parent="1" target="8DHP59ZZchC0WPOyILgm-3" edge="1">
          <mxGeometry width="50" height="50" relative="1" as="geometry">
            <mxPoint x="70" y="300" as="sourcePoint" />
            <mxPoint x="430" y="270" as="targetPoint" />
          </mxGeometry>
        </mxCell>
        <mxCell id="8DHP59ZZchC0WPOyILgm-7" value="支付費用&lt;br&gt;" style="ellipse;whiteSpace=wrap;html=1;fillColor=#d5e8d4;strokeColor=#82b366;fontSize=15;" parent="1" vertex="1">
          <mxGeometry x="280" y="410" width="90" height="60" as="geometry" />
        </mxCell>
        <mxCell id="8DHP59ZZchC0WPOyILgm-8" value="" style="endArrow=block;dashed=1;endFill=0;endSize=12;html=1;rounded=0;exitX=1.018;exitY=0.667;exitDx=0;exitDy=0;exitPerimeter=0;entryX=0;entryY=0.5;entryDx=0;entryDy=0;" parent="1" source="8DHP59ZZchC0WPOyILgm-3" target="8DHP59ZZchC0WPOyILgm-7" edge="1">
          <mxGeometry width="160" relative="1" as="geometry">
            <mxPoint x="330" y="300" as="sourcePoint" />
            <mxPoint x="490" y="300" as="targetPoint" />
          </mxGeometry>
        </mxCell>
        <mxCell id="8DHP59ZZchC0WPOyILgm-9" value="include" style="edgeLabel;html=1;align=center;verticalAlign=middle;resizable=0;points=[];" parent="8DHP59ZZchC0WPOyILgm-8" connectable="0" vertex="1">
          <mxGeometry x="-0.0003" relative="1" as="geometry">
            <mxPoint x="24" y="-5" as="offset" />
          </mxGeometry>
        </mxCell>
        <mxCell id="8DHP59ZZchC0WPOyILgm-10" value="增加車輛訊息" style="ellipse;whiteSpace=wrap;html=1;fontSize=14;labelBackgroundColor=none;fillColor=#d5e8d4;strokeColor=#82b366;" parent="1" vertex="1">
          <mxGeometry x="300" y="180" width="90" height="60" as="geometry" />
        </mxCell>
        <mxCell id="8DHP59ZZchC0WPOyILgm-11" value="" style="endArrow=block;dashed=1;endFill=0;endSize=12;html=1;rounded=0;exitX=1;exitY=0.5;exitDx=0;exitDy=0;entryX=0;entryY=0.5;entryDx=0;entryDy=0;" parent="1" source="8DHP59ZZchC0WPOyILgm-2" target="8DHP59ZZchC0WPOyILgm-10" edge="1">
          <mxGeometry width="160" relative="1" as="geometry">
            <mxPoint x="222" y="400" as="sourcePoint" />
            <mxPoint x="290" y="450" as="targetPoint" />
          </mxGeometry>
        </mxCell>
        <mxCell id="8DHP59ZZchC0WPOyILgm-12" value="include" style="edgeLabel;html=1;align=center;verticalAlign=middle;resizable=0;points=[];" parent="8DHP59ZZchC0WPOyILgm-11" connectable="0" vertex="1">
          <mxGeometry x="-0.0003" relative="1" as="geometry">
            <mxPoint x="5" y="-20" as="offset" />
          </mxGeometry>
        </mxCell>
        <mxCell id="8DHP59ZZchC0WPOyILgm-13" value="查看車輛訊息" style="ellipse;whiteSpace=wrap;html=1;fontSize=14;labelBackgroundColor=none;fillColor=#d5e8d4;strokeColor=#82b366;" parent="1" vertex="1">
          <mxGeometry x="470" y="250" width="90" height="60" as="geometry" />
        </mxCell>
        <mxCell id="8DHP59ZZchC0WPOyILgm-14" value="刪除車輛訊息" style="ellipse;whiteSpace=wrap;html=1;fontSize=14;labelBackgroundColor=none;fillColor=#d5e8d4;strokeColor=#82b366;" parent="1" vertex="1">
          <mxGeometry x="300" y="290" width="90" height="60" as="geometry" />
        </mxCell>
        <mxCell id="8DHP59ZZchC0WPOyILgm-15" value="" style="endArrow=block;dashed=1;endFill=0;endSize=12;html=1;rounded=0;exitX=1;exitY=0.78;exitDx=0;exitDy=0;entryX=0;entryY=0.333;entryDx=0;entryDy=0;exitPerimeter=0;entryPerimeter=0;" parent="1" source="8DHP59ZZchC0WPOyILgm-10" target="8DHP59ZZchC0WPOyILgm-13" edge="1">
          <mxGeometry width="160" relative="1" as="geometry">
            <mxPoint x="220" y="240" as="sourcePoint" />
            <mxPoint x="310" y="220" as="targetPoint" />
          </mxGeometry>
        </mxCell>
        <mxCell id="8DHP59ZZchC0WPOyILgm-17" value="extend" style="edgeLabel;html=1;align=center;verticalAlign=middle;resizable=0;points=[];" parent="8DHP59ZZchC0WPOyILgm-15" connectable="0" vertex="1">
          <mxGeometry x="0.0555" y="-3" relative="1" as="geometry">
            <mxPoint x="29" y="-8" as="offset" />
          </mxGeometry>
        </mxCell>
        <mxCell id="8DHP59ZZchC0WPOyILgm-18" value="" style="endArrow=block;dashed=1;endFill=0;endSize=12;html=1;rounded=0;exitX=1;exitY=0.5;exitDx=0;exitDy=0;entryX=0;entryY=0.333;entryDx=0;entryDy=0;entryPerimeter=0;" parent="1" edge="1">
          <mxGeometry width="160" relative="1" as="geometry">
            <mxPoint x="380" y="320" as="sourcePoint" />
            <mxPoint x="470" y="290" as="targetPoint" />
          </mxGeometry>
        </mxCell>
        <mxCell id="8DHP59ZZchC0WPOyILgm-19" value="extend" style="edgeLabel;html=1;align=center;verticalAlign=middle;resizable=0;points=[];" parent="8DHP59ZZchC0WPOyILgm-18" connectable="0" vertex="1">
          <mxGeometry x="0.0555" y="-3" relative="1" as="geometry">
            <mxPoint x="29" y="-8" as="offset" />
          </mxGeometry>
        </mxCell>
        <mxCell id="8DHP59ZZchC0WPOyILgm-20" value="查詢車輛訊息" style="ellipse;whiteSpace=wrap;html=1;fontSize=14;labelBackgroundColor=none;fillColor=#d5e8d4;strokeColor=#82b366;" parent="1" vertex="1">
          <mxGeometry x="470" y="360" width="90" height="60" as="geometry" />
        </mxCell>
        <mxCell id="8DHP59ZZchC0WPOyILgm-21" value="" style="endArrow=block;dashed=1;endFill=0;endSize=12;html=1;rounded=0;exitX=0.5;exitY=0;exitDx=0;exitDy=0;entryX=0.5;entryY=1;entryDx=0;entryDy=0;" parent="1" source="8DHP59ZZchC0WPOyILgm-20" target="8DHP59ZZchC0WPOyILgm-13" edge="1">
          <mxGeometry width="160" relative="1" as="geometry">
            <mxPoint x="390" y="330" as="sourcePoint" />
            <mxPoint x="480" y="300" as="targetPoint" />
          </mxGeometry>
        </mxCell>
        <mxCell id="8DHP59ZZchC0WPOyILgm-22" value="extend" style="edgeLabel;html=1;align=center;verticalAlign=middle;resizable=0;points=[];" parent="8DHP59ZZchC0WPOyILgm-21" connectable="0" vertex="1">
          <mxGeometry x="0.0555" y="-3" relative="1" as="geometry">
            <mxPoint x="29" y="-8" as="offset" />
          </mxGeometry>
        </mxCell>
        <mxCell id="8DHP59ZZchC0WPOyILgm-23" value="車主" style="shape=umlActor;verticalLabelPosition=bottom;verticalAlign=top;html=1;outlineConnect=0;" parent="1" vertex="1">
          <mxGeometry x="40" y="280" width="30" height="60" as="geometry" />
        </mxCell>
        <mxCell id="8DHP59ZZchC0WPOyILgm-24" value="登錄系統&lt;br&gt;" style="ellipse;whiteSpace=wrap;html=1;fontSize=14;labelBackgroundColor=none;fillColor=#d5e8d4;strokeColor=#82b366;" parent="1" vertex="1">
          <mxGeometry x="530" y="160" width="90" height="60" as="geometry" />
        </mxCell>
        <mxCell id="8DHP59ZZchC0WPOyILgm-27" value="" style="endArrow=none;html=1;rounded=0;entryX=1;entryY=0.5;entryDx=0;entryDy=0;" parent="1" target="8DHP59ZZchC0WPOyILgm-13" edge="1">
          <mxGeometry width="50" height="50" relative="1" as="geometry">
            <mxPoint x="670" y="280" as="sourcePoint" />
            <mxPoint x="430" y="270" as="targetPoint" />
          </mxGeometry>
        </mxCell>
        <mxCell id="8DHP59ZZchC0WPOyILgm-28" value="" style="endArrow=none;html=1;rounded=0;entryX=1.004;entryY=0.62;entryDx=0;entryDy=0;entryPerimeter=0;" parent="1" source="8DHP59ZZchC0WPOyILgm-1" target="8DHP59ZZchC0WPOyILgm-24" edge="1">
          <mxGeometry width="50" height="50" relative="1" as="geometry">
            <mxPoint x="380" y="320" as="sourcePoint" />
            <mxPoint x="430" y="270" as="targetPoint" />
          </mxGeometry>
        </mxCell>
      </root>
    </mxGraphModel>
  </diagram>
</mxfile>
